{
  "accessors": [
    {
      "bufferView": 2,
      "componentType": 5126,
      "count": 65532,
      "max": [
        900221.1875,
        3992.51513671875,
        -5863709.5
      ],
      "min": [
        879897.125,
        978.505615234375,
        -5884564.5
      ],
      "type": "VEC3"
    },
    {
      "bufferView": 2,
      "byteOffset": 786384,
      "componentType": 5126,
      "count": 65532,
      "max": [
        1.0,
        1.0,
        1.0
      ],
      "min": [
        -1.0,
        -1.0,
        -1.0
      ],
      "type": "VEC3"
    },
    {
      "bufferView": 0,
      "componentType": 5125,
      "count": 104694,
      "type": "SCALAR"
    },
    {
      "bufferView": 2,
      "byteOffset": 1572768,
      "componentType": 5126,
      "count": 65534,
      "max": [
        903315.9375,
        4991.79052734375,
        -5864379.0
      ],
      "min": [
        879908.0625,
        987.0162963867188,
        -5884556.5
      ],
      "type": "VEC3"
    },
    {
      "bufferView": 2,
      "byteOffset": 2359176,
      "componentType": 5126,
      "count": 65534,
      "max": [
        1.0,
        1.0,
        1.0
      ],
      "min": [
        -1.0,
        -1.0,
        -1.0
      ],
      "type": "VEC3"
    },
    {
      "bufferView": 0,
      "byteOffset": 418776,
      "componentType": 5125,
      "count": 106128,
      "type": "SCALAR"
    },
    {
      "bufferView": 2,
      "byteOffset": 3145584,
      "componentType": 5126,
      "count": 65532,
      "max": [
        899745.375,
        5484.9970703125,
        -5864529.5
      ],
      "min": [
        879897.625,
        976.4144287109375,
        -5884565.0
      ],
      "type": "VEC3"
    },
    {
      "bufferView": 2,
      "byteOffset": 3931968,
      "componentType": 5126,
      "count": 65532,
      "max": [
        1.0,
        1.0,
        1.0
      ],
      "min": [
        -1.0,
        -1.0,
        -1.0
      ],
      "type": "VEC3"
    },
    {
      "bufferView": 0,
      "byteOffset": 843288,
      "componentType": 5125,
      "count": 106746,
      "type": "SCALAR"
    },
    {
      "bufferView": 2,
      "byteOffset": 4718352,
      "componentType": 5126,
      "count": 30135,
      "max": [
        899811.875,
        5486.4443359375,
        -5868584.5
      ],
      "min": [
        880057.3125,
        1192.537841796875,
        -5883805.0
      ],
      "type": "VEC3"
    },
    {
      "bufferView": 2,
      "byteOffset": 5079972,
      "componentType": 5126,
      "count": 30135,
      "max": [
        1.0,
        1.0,
        1.0
      ],
      "min": [
        -1.0,
        -1.0,
        -1.0
      ],
      "type": "VEC3"
    },
    {
      "bufferView": 0,
      "byteOffset": 1270272,
      "componentType": 5125,
      "count": 49674,
      "type": "SCALAR"
    },
    {
      "bufferView": 2,
      "byteOffset": 5441592,
      "componentType": 5126,
      "count": 65532,
      "max": [
        904687.3125,
        6151.5,
        -5863580.5
      ],
      "min": [
        879918.75,
        973.5,
        -5884545.5
      ],
      "type": "VEC3"
    },
    {
      "bufferView": 2,
      "byteOffset": 6227976,
      "componentType": 5126,
      "count": 65532,
      "max": [
        0.9279724955558777,
        1.0,
        0.9424901604652405
      ],
      "min": [
        -0.9768298864364624,
        0.19699376821517944,
        -0.9532764554023743
      ],
      "type": "VEC3"
    },
    {
      "bufferView": 1,
      "componentType": 5126,
      "count": 65532,
      "max": [
        1.0,
        1.0
      ],
      "min": [
        0.0,
        0.0
      ],
      "type": "VEC2"
    },
    {
      "bufferView": 0,
      "byteOffset": 1468968,
      "componentType": 5125,
      "count": 385575,
      "type": "SCALAR"
    },
    {
      "bufferView": 2,
      "byteOffset": 7014360,
      "componentType": 5126,
      "count": 65532,
      "max": [
        904656.375,
        6162.0,
        -5863580.5
      ],
      "min": [
        879918.75,
        1011.0,
        -5881033.0
      ],
      "type": "VEC3"
    },
    {
      "bufferView": 2,
      "byteOffset": 7800744,
      "componentType": 5126,
      "count": 65532,
      "max": [
        0.9783262610435486,
        1.0,
        0.9529021978378296
      ],
      "min": [
        -0.9770386219024658,
        0.13622935116291046,
        -0.9650431871414185
      ],
      "type": "VEC3"
    },
    {
      "bufferView": 1,
      "byteOffset": 524256,
      "componentType": 5126,
      "count": 65532,
      "max": [
        0.9987509250640869,
        1.0
      ],
      "min": [
        0.0,
        0.16754114627838135
      ],
      "type": "VEC2"
    },
    {
      "bufferView": 0,
      "byteOffset": 3011268,
      "componentType": 5125,
      "count": 386052,
      "type": "SCALAR"
    },
    {
      "bufferView": 2,
      "byteOffset": 8587128,
      "componentType": 5126,
      "count": 65532,
      "max": [
        904625.5,
        6165.0,
        -5863580.5
      ],
      "min": [
        879918.75,
        1153.5,
        -5877386.5
      ],
      "type": "VEC3"
    },
    {
      "bufferView": 2,
      "byteOffset": 9373512,
      "componentType": 5126,
      "count": 65532,
      "max": [
        0.9795763492584229,
        1.0,
        0.9254046678543091
      ],
      "min": [
        -0.9710379838943481,
        0.12693892419338226,
        -0.9729122519493103
      ],
      "type": "VEC3"
    },
    {
      "bufferView": 1,
      "byteOffset": 1048512,
      "componentType": 5126,
      "count": 65532,
      "max": [
        0.9975044131278992,
        1.0
      ],
      "min": [
        0.0,
        0.34147387742996216
      ],
      "type": "VEC2"
    },
    {
      "bufferView": 0,
      "byteOffset": 4555476,
      "componentType": 5125,
      "count": 386538,
      "type": "SCALAR"
    },
    {
      "bufferView": 2,
      "byteOffset": 10159896,
      "componentType": 5126,
      "count": 65532,
      "max": [
        904594.5625,
        6258.0,
        -5863580.5
      ],
      "min": [
        879918.75,
        1198.5,
        -5873832.0
      ],
      "type": "VEC3"
    },
    {
      "bufferView": 2,
      "byteOffset": 10946280,
      "componentType": 5126,
      "count": 65532,
      "max": [
        0.9910170435905457,
        1.0,
        0.9183908104896545
      ],
      "min": [
        -0.9863278269767761,
        0.1331203430891037,
        -0.9574432373046875
      ],
      "type": "VEC3"
    },
    {
      "bufferView": 1,
      "byteOffset": 1572768,
      "componentType": 5126,
      "count": 65532,
      "max": [
        0.9962553381919861,
        1.0
      ],
      "min": [
        0.0,
        0.5110183358192444
      ],
      "type": "VEC2"
    },
    {
      "bufferView": 0,
      "byteOffset": 6101628,
      "componentType": 5125,
      "count": 387015,
      "type": "SCALAR"
    },
    {
      "bufferView": 2,
      "byteOffset": 11732664,
      "componentType": 5126,
      "count": 65532,
      "max": [
        904563.625,
        6258.0,
        -5863580.5
      ],
      "min": [
        879918.75,
        1297.5,
        -5870278.5
      ],
      "type": "VEC3"
    },
    {
      "bufferView": 2,
      "byteOffset": 12519048,
      "componentType": 5126,
      "count": 65532,
      "max": [
        0.9506149888038635,
        1.0,
        0.9367899298667908
      ],
      "min": [
        -0.9664299488067627,
        0.2199956476688385,
        -0.9528315663337708
      ],
      "type": "VEC3"
    },
    {
      "bufferView": 1,
      "byteOffset": 2097024,
      "componentType": 5126,
      "count": 65532,
      "max": [
        0.995006263256073,
        1.0
      ],
      "min": [
        0.0,
        0.6805151700973511
      ],
      "type": "VEC2"
    },
    {
      "bufferView": 0,
      "byteOffset": 7649688,
      "componentType": 5125,
      "count": 387504,
      "type": "SCALAR"
    },
    {
      "bufferView": 2,
      "byteOffset": 13305432,
      "componentType": 5126,
      "count": 52021,
      "max": [
        904532.6875,
        6112.5,
        -5863580.5
      ],
      "min": [
        879918.75,
        1575.0,
        -5877386.5
      ],
      "type": "VEC3"
    },
    {
      "bufferView": 2,
      "byteOffset": 13929684,
      "componentType": 5126,
      "count": 52021,
      "max": [
        0.9073359370231628,
        1.0,
        0.9408336281776428
      ],
      "min": [
        -0.965015172958374,
        0.249015212059021,
        -0.9295562505722046
      ],
      "type": "VEC3"
    },
    {
      "bufferView": 1,
      "byteOffset": 2621280,
      "componentType": 5126,
      "count": 52021,
      "max": [
        0.9937571883201599,
        1.0
      ],
      "min": [
        0.0,
        0.34147387742996216
      ],
      "type": "VEC2"
    },
    {
      "bufferView": 0,
      "byteOffset": 9199704,
      "componentType": 5125,
      "count": 306912,
      "type": "SCALAR"
    }
  ],
  "asset": {
    "extras": {
      "author": "Xavier Fischer - Elevation API (https://sketchfab.com/xfischer)",
      "license": "CC-BY-NC-SA-4.0 (http://creativecommons.org/licenses/by-nc-sa/4.0/)",
      "source": "https://sketchfab.com/3d-models/eiger-with-buildings-9da93a51743c49b284ccfe6fd05c1815",
      "title": "Eiger with buildings"
    },
    "generator": "Sketchfab-12.68.0",
    "version": "2.0"
  },
  "bufferViews": [
    {
      "buffer": 0,
      "byteLength": 10427352,
      "name": "floatBufferViews",
      "target": 34963
    },
    {
      "buffer": 0,
      "byteLength": 3037448,
      "byteOffset": 10427352,
      "byteStride": 8,
      "name": "floatBufferViews",
      "target": 34962
    },
    {
      "buffer": 0,
      "byteLength": 14553936,
      "byteOffset": 13464800,
      "byteStride": 12,
      "name": "floatBufferViews",
      "target": 34962
    }
  ],
  "buffers": [
    {
      "byteLength": 28018736,
      "uri": "scene.bin"
    }
  ],
  "images": [
    {
      "uri": "textures/Default_0_baseColor.jpeg"
    }
  ],
  "materials": [
    {
      "doubleSided": true,
      "name": "Default",
      "pbrMetallicRoughness": {
        "metallicFactor": 0.0
      }
    },
    {
      "doubleSided": true,
      "name": "Default_0",
      "pbrMetallicRoughness": {
        "baseColorTexture": {
          "index": 0
        },
        "metallicFactor": 0.0
      }
    }
  ],
  "meshes": [
    {
      "name": "Object_0",
      "primitives": [
        {
          "attributes": {
            "NORMAL": 1,
            "POSITION": 0
          },
          "indices": 2,
          "material": 0,
          "mode": 4
        }
      ]
    },
    {
      "name": "Object_1",
      "primitives": [
        {
          "attributes": {
            "NORMAL": 4,
            "POSITION": 3
          },
          "indices": 5,
          "material": 0,
          "mode": 4
        }
      ]
    },
    {
      "name": "Object_2",
      "primitives": [
        {
          "attributes": {
            "NORMAL": 7,
            "POSITION": 6
          },
          "indices": 8,
          "material": 0,
          "mode": 4
        }
      ]
    },
    {
      "name": "Object_3",
      "primitives": [
        {
          "attributes": {
            "NORMAL": 10,
            "POSITION": 9
          },
          "indices": 11,
          "material": 0,
          "mode": 4
        }
      ]
    },
    {
      "name": "Object_4",
      "primitives": [
        {
          "attributes": {
            "NORMAL": 13,
            "POSITION": 12,
            "TEXCOORD_0": 14
          },
          "indices": 15,
          "material": 1,
          "mode": 4
        }
      ]
    },
    {
      "name": "Object_5",
      "primitives": [
        {
          "attributes": {
            "NORMAL": 17,
            "POSITION": 16,
            "TEXCOORD_0": 18
          },
          "indices": 19,
          "material": 1,
          "mode": 4
        }
      ]
    },
    {
      "name": "Object_6",
      "primitives": [
        {
          "attributes": {
            "NORMAL": 21,
            "POSITION": 20,
            "TEXCOORD_0": 22
          },
          "indices": 23,
          "material": 1,
          "mode": 4
        }
      ]
    },
    {
      "name": "Object_7",
      "primitives": [
        {
          "attributes": {
            "NORMAL": 25,
            "POSITION": 24,
            "TEXCOORD_0": 26
          },
          "indices": 27,
          "material": 1,
          "mode": 4
        }
      ]
    },
    {
      "name": "Object_8",
      "primitives": [
        {
          "attributes": {
            "NORMAL": 29,
            "POSITION": 28,
            "TEXCOORD_0": 30
          },
          "indices": 31,
          "material": 1,
          "mode": 4
        }
      ]
    },
    {
      "name": "Object_9",
      "primitives": [
        {
          "attributes": {
            "NORMAL": 33,
            "POSITION": 32,
            "TEXCOORD_0": 34
          },
          "indices": 35,
          "material": 1,
          "mode": 4
        }
      ]
    }
  ],
  "nodes": [
    {
      "children": [
        1
      ],
      "matrix": [
        1.0,
        0.0,
        0.0,
        0.0,
        0.0,
        2.220446049250313e-16,
        -1.0,
        0.0,
        0.0,
        1.0,
        2.220446049250313e-16,
        0.0,
        0.0,
        0.0,
        0.0,
        1.0
      ],
      "name": "Sketchfab_model"
    },
    {
      "children": [
        2
      ],
      "name": "root"
    },
    {
      "children": [
        3
      ],
      "matrix": [
        1.0,
        0.0,
        0.0,
        0.0,
        0.0,
        2.220446049250313e-16,
        1.0,
        0.0,
        0.0,
        -1.0,
        2.220446049250313e-16,
        0.0,
        0.0,
        0.0,
        0.0,
        1.0
      ],
      "name": "GLTF_SceneRootNode"
    },
    {
      "children": [
        4,
        5,
        6,
        7,
        8,
        9,
        10,
        11,
        12,
        13
      ],
      "name": "TerrainNode_0"
    },
    {
      "mesh": 0,
      "name": "Object_4"
    },
    {
      "mesh": 1,
      "name": "Object_5"
    },
    {
      "mesh": 2,
      "name": "Object_6"
    },
    {
      "mesh": 3,
      "name": "Object_7"
    },
    {
      "mesh": 4,
      "name": "Object_8"
    },
    {
      "mesh": 5,
      "name": "Object_9"
    },
    {
      "mesh": 6,
      "name": "Object_10"
    },
    {
      "mesh": 7,
      "name": "Object_11"
    },
    {
      "mesh": 8,
      "name": "Object_12"
    },
    {
      "mesh": 9,
      "name": "Object_13"
    }
  ],
  "samplers": [
    {
      "magFilter": 9729,
      "minFilter": 9987,
      "wrapS": 10497,
      "wrapT": 10497
    }
  ],
  "scene": 0,
  "scenes": [
    {
      "name": "Sketchfab_Scene",
      "nodes": [
        0
      ]
    }
  ],
  "textures": [
    {
      "sampler": 0,
      "source": 0
    }
  ]
}
